<?xml version="1.0" standalone="no"?>
<!DOCTYPE svg PUBLIC "-//W3C//DTD SVG 20010904//EN"
 "http://www.w3.org/TR/2001/REC-SVG-20010904/DTD/svg10.dtd">
<svg version="1.0" xmlns="http://www.w3.org/2000/svg"
 width="450.000000pt" height="450.000000pt" viewBox="0 0 450.000000 450.000000"
 preserveAspectRatio="xMidYMid meet">
<metadata>
Created by potrace 1.14, written by Peter Selinger 2001-2017
</metadata>
<g transform="translate(0.000000,450.000000) scale(0.100000,-0.100000)"
fill="#000000" stroke="none">
<path d="M1580 4000 c0 -6 -11 -106 -25 -223 l-25 -212 -83 -85 c-190 -193
-299 -424 -327 -690 -13 -131 -13 -1993 0 -2042 14 -49 53 -94 103 -120 86
-43 208 -2 248 85 17 39 19 72 19 532 0 386 3 504 15 558 49 230 247 390 484
389 228 -1 419 -149 476 -369 12 -47 15 -147 15 -558 0 -560 -1 -547 73 -612
88 -77 235 -46 286 59 19 41 21 61 21 261 l0 217 75 0 75 0 0 -223 0 -223 29
-46 c69 -108 221 -117 304 -18 40 48 47 90 47 307 l0 201 163 4 163 3 76 38
c91 45 156 112 190 195 22 55 23 69 26 392 4 359 1 386 -45 441 -92 109 -262
80 -318 -53 -12 -31 -15 -88 -15 -326 0 -211 -3 -291 -12 -300 -8 -8 -49 -12
-120 -12 l-108 0 0 563 c0 309 -5 605 -10 657 -28 266 -137 497 -327 690 l-83
85 -26 220 c-14 121 -28 222 -30 225 -3 2 -64 -56 -137 -128 l-133 -133 -94
25 c-204 55 -396 55 -600 0 l-94 -25 -131 131 c-71 71 -134 130 -138 130 -4 0
-7 -5 -7 -10z m766 -841 c32 -6 82 -22 111 -35 58 -28 135 -100 131 -122 -2
-8 -20 -29 -41 -46 -35 -28 -46 -31 -107 -31 -59 0 -72 3 -95 25 -15 14 -33
37 -41 52 -13 25 -12 29 11 52 39 39 28 77 -30 96 -58 19 -125 -13 -125 -60 0
-6 11 -22 25 -36 26 -26 26 -26 7 -57 -52 -90 -176 -104 -254 -29 -16 14 -28
31 -28 38 0 20 79 92 128 116 91 44 200 57 308 37z m-55 -263 c70 -64 187 -73
275 -21 l46 27 -7 -23 c-13 -46 -57 -100 -102 -129 -79 -50 -137 -65 -253 -65
-116 0 -174 15 -253 65 -45 29 -89 83 -102 129 l-7 23 46 -27 c88 -52 206 -43
274 20 20 19 39 35 41 35 2 0 21 -16 42 -34z"/>
<path d="M1640 973 c0 -200 2 -220 21 -261 33 -66 86 -97 170 -97 60 0 71 3
106 31 75 61 78 72 81 322 l3 222 -190 0 -191 0 0 -217z"/>
</g>
</svg>
