
<svg xmlns="http://www.w3.org/2000/svg" xml:space="preserve" width="450px" height="450px" viewBox="0 0 11706 11706">
<!-- Created by: treedbox.com.br -->
<defs><style>
.bg{fill:none}
.ear1left{fill:#607D8B}
.ear1right{fill:#607D8B}
.ear2right{fill:#9E9E9E}
.ear2left{fill:#9E9E9E}
.hair{fill:#607D8B}
.head{fill:#607D8B}
.eyeright{fill:#000000}
.eyeleft{fill:#000000}
.nose{fill:#000000}
.mouth{fill:#FFFFFF}
.lips{fill:#000000}
.collar{fill:#03A9F4}
.body{fill:#607D8B}
.chest{fill:#FFFFFF}
.legright{fill:#607D8B}
.legrightshadow{fill:rgba(0, 0, 0, 0.1); pointer-events: none}
.pataright{fill:#607D8B}
.legbackright{fill:#607D8B}
.patabackright{fill:#607D8B}
.legbackleft{fill:#607D8B}
.patabackleft{fill:#607D8B}
.legleft{fill:#607D8B}
.pataleft{fill:#607D8B}
.tail{fill:#607D8B)}
.tailshadow{fill:rgba(0, 0, 0, 0.1); pointer-events: none}
.tailtop{fill:#607D8B}
.redfill{
  fill:#F44336
}
.pinkfill{
  fill:#E91E63
}
.violetfill{
  fill:#9C27B0
}
.purplefill{
  fill:#673AB7
}
.darkbluefill{
  fill:#3F51B5
}
.bluefill{
  fill:#2196F3
}
.lightbluefill{
  fill:#03A9F4
}
.mediumturquoisefill{
  fill:#00BCD4
}
.darkgreenfill{
  fill:#009688
}
.greenfill{
  fill:#4CAF50
}
.lightgreenfill{
  fill:#8BC34A
}
.greenyellowfill{
  fill:#CDDC39
}
.lightyellowfill{
  fill:#FFEB3B
}
.yellowfill{
  fill:#FFC107
}
.orangefill{
  fill:#FF9800
}
.orangeredfill{
  fill:#FF5722
}
.brownfill{
  fill:#795548
}
.grayfill{
  fill:#9E9E9E
}
.slategreyfill{
  fill:#607D8B
}
</style></defs><g>
			<circle class="bg randomcolorfill" cx="5853" cy="5853" r="5853"></circle>
			<polygon class="ear1left randomcolorfill" points="7762,2854 7581,1271 6577,2274 "></polygon>
			<polygon class="ear1right randomcolorfill" points="3943,2854 4125,1271 5128,2274 "></polygon>
			<path class="ear2right randomcolorfill" d="M3990 2443l135 -1172 481 788c-221,103 -428,232 -616,384z"></path>
			<path class="ear2left randomcolorfill" d="M7715 2443l-134 -1172 -482 788c222,103 429,232 616,384z"></path>
			<circle class="head randomcolorfill" cx="5853" cy="4736" r="2948"></circle>
			<path class="hair randomcolorfill" d="M5853 1788c187,0 371,18 549,51 -76,272 -325,470 -621,470 -285,0 -527,-185 -612,-441 219,-52 448,-80 684,-80z"></path>
			<ellipse class="eyeright randomcolorfill" cx="4838" cy="3270" rx="300" ry="218"></ellipse>
			<ellipse class="eyeleft randomcolorfill" cx="6820" cy="3270" rx="300" ry="218"></ellipse>
			<rect class="legright randomcolorfill" x="2905" y="7480" width="968" height="2634" rx="484" ry="484"></rect>
			<path class="pataright randomcolorfill" d="M3873 9578l0 52c0,266 -218,484 -484,484l0 0c-266,0 -484,-218 -484,-484l0 -52 968 0z"></path>
			<rect class="legbackright randomcolorfill" x="4271" y="7480" width="968" height="2634" rx="484" ry="484"></rect>
			<path class="patabackright randomcolorfill" d="M5239 9578l0 52c0,266 -218,484 -484,484l0 0c-266,0 -484,-218 -484,-484l0 -52 968 0z"></path>
			<rect class="legbackleft randomcolorfill" x="7833" y="7480" width="968" height="2634" rx="484" ry="484"></rect>
			<path class="patabackleft randomcolorfill" d="M7833 9578l0 52c0,266 217,484 484,484l0 0c266,0 484,-218 484,-484l0 -52 -968 0z"></path>
			<rect class="legleft randomcolorfill" x="6466" y="7480" width="968" height="2634" rx="484" ry="484"></rect>
			<path class="pataleft randomcolorfill" d="M6466 9578l0 52c0,266 218,484 484,484l0 0c266,0 484,-218 484,-484l0 -52 -968 0z"></path>
			<path class="tail randomcolorfill slategreyfill" d="M7442 8127l0 0c0,266 217,484 484,484l1454 0c563,0 1041,-406 1041,-982l0 -1489c0,-266 -218,-484 -484,-484l0 0c-266,0 -484,218 -484,484l0 1206 0 172 0 0 0 4 0 0 0 3 0 0 -1 3 0 0 0 3 0 0 0 3 0 0 -1 3 0 0 0 3 0 0 -1 3 0 0 0 3 0 0 -1 3 0 0 -1 3 0 0 -1 3 0 0 -1 3 0 0 -1 3 0 0 -1 3 -1 3 0 0 -1 2 0 0 -1 3 0 0 -2 3 0 0 -1 2 0 0 -2 3 0 0 -1 3 0 0 -2 2 0 0 -1 3 0 0 -2 2 0 0 -2 3 0 0 -2 2 0 0 -2 2 0 0 -2 3 0 0 -2 2 0 0 -2 2 0 0 -2 2 0 0 -2 2 0 0 -2 2 0 0 -2 2 0 0 -2 2 -1 0 -2 2 0 0 -2 2 0 0 -3 2 0 0 -2 1 0 0 -3 2 0 0 -2 2 0 0 -3 1 0 0 -2 2 0 0 -3 1 0 0 -3 1 0 0 -2 2 0 0 -3 1 0 0 -3 1 -3 1 0 0 -3 1 0 0 -3 1 0 0 -3 1 0 0 -2 1 -1 0 -2 0 0 0 -3 1 0 0 -4 1 0 0 -3 0 0 0 -3 1 0 0 -3 0 0 0 -3 0 0 0 -3 1 0 0 -3 0 0 0 -3 0 0 0 -80 0 -1323 0c-267,0 -484,217 -484,484z"></path>
			<polygon class="legrightshadow" points="4271,8611 5239,8611 5239,9083 5239,9094 4271,9094 4271,9079 "></polygon>
			<rect class="tailshadow" x="8801" y="7643" width="218" height="968"></rect>
			<rect class="body randomcolorfill" x="2905" y="4748" width="5896" height="3862"></rect>
			<path class="chest randomcolorfill" d="M6466 8611l-2593 0 0 -1329c0,-713 583,-1296 1297,-1296l0 0c713,0 1296,583 1296,1296l0 1329z"></path>
			<ellipse class="mouth randomcolorfill" cx="5853" cy="4101" rx="947" ry="647"></ellipse>
			<rect class="collar randomcolorfill" x="2905" y="4748" width="5896" height="278"></rect>
			<path class="lips randomcolorfill" d="M6782 3863c26,-43 82,-56 125,-29 42,26 55,82 29,125 -75,119 -163,205 -260,262 -107,62 -223,89 -344,87 -17,0 -31,-1 -42,-1l-3 -1c-145,-12 -278,-74 -374,-177 -22,-24 -42,-50 -60,-78 -18,28 -38,54 -60,78 -97,103 -230,165 -375,177l-2 1c-11,0 -25,1 -42,1 -121,2 -238,-25 -344,-87 -98,-57 -186,-143 -260,-262 -27,-43 -14,-99 29,-125 42,-27 98,-14 125,29 57,93 125,159 197,201 78,45 162,65 250,63 7,0 17,0 30,-1l1 0c101,-9 193,-51 258,-121 55,-59 92,-138 102,-235 -2,-22 -2,-43 -2,-66 0,-18 1,-34 2,-48l0 0 0 -1 0 0 0 -1 0 0 0 -1 0 -2 1 0 0 -2 0 0 0 -2 0 -1 0 -1 1 -1 0 -2 0 0 0 -2 0 0 1 -2 0 -1 0 -1 1 -1 0 -1 0 -1 1 -1 0 -1 0 -1 1 -1 0 -1 1 -1 0 -2 2 -4 0 0 1 -2 1 -1 0 -1 1 -1 2 -4 1 -1 0 -1c1,-2 3,-4 4,-5l1 -1 0 -1 1 -1 1 -1 1 0 0 -1 1 -1 1 -1 0 0 1 -1 1 -1 2 -2 0 0 0 0 1 -1 1 -1 1 -1 1 0 0 -1 1 -1 1 0c2,-2 4,-3 5,-4l1 -1 1 0 4 -3 1 0 1 -1 2 -1 1 0 1 -1 4 -1 1 -1 1 0 1 -1 1 0 1 0 1 -1 1 0 1 0 2 -1 0 0 2 0 0 -1 2 0 1 0 1 0 1 -1 1 0 1 0 2 0 0 0 2 -1 0 0 2 0 1 0 2 0 0 0 2 0 0 0 2 0 1 0 2 0 0 0 2 0 0 0 2 0 1 0 2 0 0 0 2 0 0 0 2 0 0 0 2 1 1 0 2 0 0 0 2 0 0 1 2 0 1 0 1 0 1 1 1 0 1 0 1 1 1 0 1 0 1 1 2 0 0 0 2 1 0 0 2 1 4 1 1 1 1 0 2 1 0 1 1 0 4 3 1 0 1 1c2,1 4,2 5,4l1 0 1 1 1 1 1 0 1 1 0 1 1 1 1 0 0 0 2 2 0 1 2 1 0 0 1 1 0 1 1 1 1 0 0 1 1 1 1 1 0 1c2,1 3,3 4,5l1 1 0 1 3 4 0 1 1 1 1 1 0 2 1 0 2 4 0 2 0 1 1 1 0 1 1 1 0 1 0 1 1 1 0 1 0 1 1 1 0 1 0 2 0 0 1 2 0 0 0 2 0 1 0 1 0 1 1 2 0 0 0 2 0 0 0 2 0 1 0 0 0 1 0 0 0 1 0 0c1,14 2,30 2,48 1,23 0,44 -1,66 10,97 47,176 101,235 66,70 157,112 258,121l2 0c13,1 23,1 30,1 87,2 172,-18 249,-63 73,-42 140,-108 198,-201z"></path>
			<ellipse class="nose randomcolorfill" cx="5853" cy="3660" rx="218" ry="158"></ellipse>
			<path class="tailtop randomcolorfill" d="M9453 6192l0 -52c0,-266 218,-484 484,-484l0 0c266,0 484,218 484,484l0 52 -968 0z"></path>
		</g>
	</svg>
